<svg width="20" height="20" viewBox="0 0 20 20" fill="none" xmlns="http://www.w3.org/2000/svg">
    <path d="M17.4547 11.97L18.1799 12.1611C18.265 11.8383 18.1265 11.4982 17.8401 11.3266C17.5538 11.1551 17.1885 11.1934 16.944 11.4207L17.4547 11.97ZM8.0306 2.5459L8.57989 3.05657C8.80718 2.81209 8.84554 2.44682 8.67398 2.16046C8.50243 1.8741 8.16227 1.73559 7.83948 1.82066L8.0306 2.5459ZM12.9154 13.0035C9.64678 13.0035 6.99707 10.3538 6.99707 7.08524H5.49707C5.49707 11.1823 8.81835 14.5035 12.9154 14.5035V13.0035ZM16.944 11.4207C15.8869 12.4035 14.4721 13.0035 12.9154 13.0035V14.5035C14.8657 14.5035 16.6418 13.7499 17.9654 12.5193L16.944 11.4207ZM16.7295 11.7789C15.9437 14.7607 13.2277 16.9586 10.0003 16.9586V18.4586C13.9257 18.4586 17.2249 15.7853 18.1799 12.1611L16.7295 11.7789ZM10.0003 16.9586C6.15734 16.9586 3.04199 13.8433 3.04199 10.0003H1.54199C1.54199 14.6717 5.32892 18.4586 10.0003 18.4586V16.9586ZM3.04199 10.0003C3.04199 6.77289 5.23988 4.05695 8.22173 3.27114L7.83948 1.82066C4.21532 2.77574 1.54199 6.07486 1.54199 10.0003H3.04199ZM6.99707 7.08524C6.99707 5.52854 7.5971 4.11366 8.57989 3.05657L7.48132 2.03522C6.25073 3.35885 5.49707 5.13487 5.49707 7.08524H6.99707Z" fill="currentColor"></path>
</svg>
