<svg

    width="24"
    height="24"
    viewBox="0 0 24 24"
    fill="none"
    xmlns="http://www.w3.org/2000/svg"
>
    <path
        fill-rule="evenodd"
        clip-rule="evenodd"
        fill="currentColor"
        d="M7.756 5.5c0-.414.336-.75.75-.75h9.993c.414 0 .75.336.75.75v9.995c0 .414-.336.75-.75.75H8.506c-.414 0-.75-.336-.75-.75V5.5zm.75-2.25c-1.243 0-2.25 1.007-2.25 2.25v.762H5.502c-1.243 0-2.25 1.007-2.25 2.25v9.986c0 1.243 1.007 2.25 2.25 2.25h9.986c1.243 0 2.25-1.007 2.25-2.25v-.754h.76c1.243 0 2.25-1.007 2.25-2.25V5.5c0-1.243-1.007-2.25-2.25-2.25H8.506zm7.982 14.495H8.506c-1.243 0-2.25-1.007-2.25-2.25V7.763H5.502c-.414 0-.75.336-.75.75v9.986c0 .414.336.75.75.75h9.986c.414 0 .75-.336.75-.75v-.754z"/>
</svg>
